<?xml version="1.0" encoding="UTF-8"?>
<svg xmlns="http://www.w3.org/2000/svg" xmlns:xlink="http://www.w3.org/1999/xlink" width="1254.9pt" height="1254.9pt" viewBox="0 0 1254.9 1254.9" version="1.1">
<defs>
<clipPath id="clip1">
  <path d="M 0 0 L 1254.898438 0 L 1254.898438 1254.898438 L 0 1254.898438 Z M 0 0 "/>
</clipPath>
</defs>
<g id="surface1">
<path style="fill-rule:evenodd;fill:rgb(8.227539%,8.616638%,8.616638%);fill-opacity:1;stroke-width:2.16;stroke-linecap:butt;stroke-linejoin:miter;stroke:rgb(8.227539%,8.616638%,8.616638%);stroke-opacity:1;stroke-miterlimit:4;" d="M 4233.867188 10816.382813 C 4284.804688 10807.789063 4324.414063 10779.390625 4352.734375 10731.304688 C 4371.328125 10699.585938 4378.398438 10668.101563 4373.867188 10636.8125 C 4367.96875 10602.085938 4348.554688 10575.210938 4315.664063 10555.796875 L 4211.445313 10494.585938 L 4231.40625 10459.585938 L 4364.0625 10535.09375 C 4390.46875 10550.210938 4411.015625 10544.78125 4425.703125 10518.882813 C 4440.390625 10493.21875 4434.53125 10472.710938 4408.125 10457.710938 L 4375.898438 10439.3125 C 4405.234375 10425.015625 4427.734375 10404 4443.554688 10376.1875 C 4467.421875 10334.3125 4470.46875 10289.703125 4452.695313 10242.28125 C 4434.921875 10195.015625 4403.867188 10158.804688 4359.648438 10133.6875 C 4314.804688 10108.101563 4268.4375 10099.585938 4220.390625 10108.21875 C 4169.492188 10117.710938 4132.070313 10143.414063 4108.203125 10185.289063 C 4092.382813 10213.101563 4085.859375 10243.101563 4088.4375 10275.71875 L 4062.65625 10260.992188 C 4036.875 10246.304688 4016.640625 10251.890625 4001.953125 10277.710938 C 3987.265625 10303.414063 3992.8125 10323.6875 4018.59375 10338.414063 L 4153.085938 10415.015625 L 4132.65625 10450.914063 L 3995.390625 10372.710938 C 3969.570313 10358.101563 3949.414063 10363.414063 3934.921875 10388.882813 C 3920.039063 10415.015625 3925.820313 10435.601563 3952.070313 10450.601563 L 4164.921875 10571.8125 L 4269.414063 10633.21875 C 4278.984375 10638.804688 4284.726563 10647.90625 4286.25 10660.289063 C 4287.929688 10672.710938 4285.195313 10685.09375 4278.046875 10697.28125 C 4265.859375 10717.984375 4246.992188 10729.78125 4221.445313 10732.90625 C 4207.421875 10734.390625 4197.1875 10740.71875 4190.742188 10751.695313 C 4185 10761.382813 4183.710938 10772.28125 4186.835938 10784.390625 C 4190 10796.617188 4196.445313 10805.484375 4206.171875 10811.1875 C 4214.6875 10816.1875 4223.945313 10817.90625 4233.867188 10816.382813 Z M 4365.351563 10331.5 C 4355.117188 10349.390625 4338.515625 10360.71875 4315.234375 10365.601563 C 4288.945313 10370.289063 4262.460938 10365.015625 4235.898438 10349.898438 C 4209.335938 10334.78125 4191.5625 10315.289063 4182.8125 10291.382813 C 4173.90625 10267.398438 4174.53125 10246.617188 4184.765625 10228.6875 C 4194.648438 10211.304688 4211.367188 10200.484375 4235.273438 10195.992188 C 4261.914063 10190.71875 4288.554688 10195.71875 4315.117188 10210.796875 C 4341.679688 10225.914063 4359.570313 10246.304688 4368.554688 10271.890625 C 4376.289063 10294.390625 4375.195313 10314.117188 4365.351563 10331.5 Z M 5513.046875 10746.695313 C 5524.335938 10697.789063 5523.710938 10651.890625 5511.09375 10609.117188 C 5493.789063 10552.203125 5456.5625 10517.085938 5399.414063 10503.882813 C 5347.773438 10491.890625 5301.71875 10499.78125 5261.25 10527.515625 C 5239.0625 10485.289063 5203.867188 10458.6875 5155.664063 10447.515625 C 5103.320313 10435.40625 5059.414063 10438.6875 5023.90625 10457.28125 C 4983.632813 10477.789063 4957.226563 10515.210938 4944.648438 10569.585938 C 4935.273438 10610.210938 4942.421875 10646.695313 4966.132813 10679 C 4987.226563 10707.085938 5014.960938 10725.09375 5049.414063 10733.101563 C 5072.109375 10738.296875 5092.578125 10736.890625 5110.78125 10728.804688 C 5128.984375 10720.71875 5140.546875 10705.914063 5145.46875 10684.585938 C 5149.765625 10665.992188 5146.757813 10648.414063 5136.445313 10631.890625 C 5126.132813 10615.40625 5111.640625 10604.898438 5093.085938 10600.601563 C 5071.015625 10595.601563 5051.054688 10600.40625 5033.164063 10615.09375 C 5030.625 10607.203125 5030.429688 10598.6875 5032.5 10589.703125 C 5038.789063 10562.515625 5049.765625 10544.78125 5065.507813 10536.304688 C 5081.289063 10527.710938 5104.609375 10527.085938 5135.585938 10534.3125 C 5156.25 10539.117188 5171.523438 10550.796875 5181.328125 10569.507813 C 5191.132813 10588.296875 5192.96875 10610.914063 5186.914063 10637.203125 C 5179.6875 10668.414063 5190.898438 10687.515625 5220.507813 10694.3125 C 5250.117188 10701.109375 5268.515625 10688.882813 5275.742188 10657.710938 C 5281.640625 10632.085938 5294.0625 10612.984375 5312.890625 10600.484375 C 5331.757813 10587.984375 5353.90625 10584.78125 5379.375 10590.71875 C 5401.40625 10595.71875 5416.640625 10610.71875 5425 10635.71875 C 5433.398438 10660.484375 5433.515625 10690.601563 5425.390625 10725.71875 C 5403.046875 10822.515625 5357.070313 10886.382813 5287.460938 10917.59375 C 5290.390625 10883.101563 5278.710938 10853.609375 5252.5 10828.804688 C 5229.960938 10807.085938 5200.78125 10792.007813 5165 10783.804688 C 5131.953125 10776.109375 5099.492188 10778.414063 5067.695313 10790.484375 C 5029.375 10805.601563 5005.898438 10831.8125 4997.1875 10869.507813 C 4987.8125 10910.015625 4999.804688 10944.507813 5033.046875 10973.21875 C 5056.601563 10993.6875 5084.882813 11007.90625 5117.929688 11015.484375 C 5217.8125 11038.609375 5304.453125 11023.101563 5377.890625 10969 C 5445.390625 10918.609375 5490.429688 10844.390625 5513.046875 10746.695313 Z M 5196.523438 10915.601563 C 5193.75 10927.710938 5185.78125 10933.804688 5172.578125 10934.585938 C 5167.421875 10934.78125 5155.898438 10932.90625 5138.007813 10928.804688 C 5098.75 10919.703125 5081.09375 10906.695313 5084.960938 10889.78125 C 5086.5625 10882.90625 5092.851563 10876.890625 5103.789063 10872.085938 C 5114.6875 10867.085938 5128.398438 10866.695313 5144.921875 10870.484375 C 5184.179688 10879.585938 5201.367188 10894.585938 5196.523438 10915.601563 Z M 6601.25 10520.015625 C 6595.78125 10444.585938 6556.5625 10387.59375 6483.59375 10348.882813 C 6418.046875 10314.703125 6340.15625 10300.914063 6249.921875 10307.515625 C 6125.15625 10316.5 6035.859375 10355.289063 5981.992188 10423.609375 C 5974.921875 10433.414063 5971.757813 10443.492188 5972.5 10454.117188 C 5973.398438 10466.109375 5978.75 10476.304688 5988.554688 10484.78125 C 5998.398438 10493.296875 6009.296875 10497.085938 6021.289063 10496.304688 C 6033.28125 10495.40625 6043.476563 10489.3125 6051.835938 10478.101563 C 6089.375 10428.609375 6156.757813 10400.289063 6254.023438 10393.21875 C 6320.976563 10388.414063 6378.28125 10396.617188 6425.898438 10417.984375 C 6479.414063 10442.398438 6507.890625 10478.609375 6511.367188 10526.617188 C 6513.4375 10554.78125 6529.609375 10567.789063 6559.921875 10565.601563 C 6589.53125 10563.414063 6603.28125 10548.21875 6601.25 10520.015625 Z M 6437.109375 10975.289063 L 6437.109375 10975.09375 L 6429.101563 10974.898438 L 6377.34375 10972.398438 L 6377.304688 10973.414063 L 6332.1875 10972.085938 C 6341.054688 10959.507813 6345.664063 10946.890625 6346.015625 10934 C 6346.5625 10914.78125 6340.3125 10898.101563 6327.265625 10884.117188 C 6314.21875 10870.210938 6298.164063 10862.984375 6279.101563 10862.515625 C 6260.039063 10861.890625 6243.398438 10868.21875 6229.257813 10881.382813 C 6215.078125 10894.585938 6207.734375 10910.796875 6207.1875 10930.09375 C 6206.796875 10944.390625 6210.3125 10957.203125 6217.773438 10968.882813 L 6017.65625 10963.21875 C 5987.8125 10962.398438 5972.539063 10976.617188 5971.71875 11005.914063 C 5970.859375 11035.992188 5985.625 11051.382813 6016.171875 11052.28125 L 6373.007813 11062.398438 L 6494.0625 11068.21875 C 6505.15625 11068.804688 6514.453125 11074.195313 6521.5625 11084.390625 C 6528.867188 11094.703125 6532.148438 11106.890625 6531.484375 11120.992188 C 6530.3125 11145.015625 6519.101563 11164.3125 6497.890625 11178.804688 C 6486.171875 11186.8125 6480 11197.085938 6479.414063 11209.78125 C 6478.867188 11221.109375 6482.773438 11231.304688 6491.171875 11240.601563 C 6499.570313 11249.78125 6509.414063 11254.703125 6520.703125 11255.289063 C 6530.585938 11255.796875 6539.570313 11252.984375 6547.65625 11247.007813 C 6588.789063 11215.796875 6610.703125 11172.28125 6613.398438 11116.5 C 6615.195313 11079.78125 6606.796875 11048.609375 6588.242188 11022.90625 C 6566.953125 10995.015625 6537.226563 10980.09375 6499.101563 10978.296875 Z M 6571.71875 10790.71875 C 6573.476563 10729 6556.875 10678.882813 6521.914063 10640.40625 C 6491.054688 10605.40625 6452.34375 10587.398438 6405.703125 10586.109375 C 6355.546875 10584.585938 6313.320313 10603.21875 6278.984375 10641.890625 C 6246.210938 10601.304688 6203.671875 10580.40625 6151.367188 10578.882813 C 6106.171875 10577.59375 6067.265625 10591.304688 6034.609375 10620.289063 C 5999.0625 10652.515625 5980.46875 10696.695313 5978.90625 10752.710938 C 5977.382813 10805.914063 5997.109375 10845.796875 6038.085938 10872.59375 C 6069.335938 10892.59375 6101.25 10901.304688 6133.828125 10898.609375 C 6152.226563 10898.492188 6168.320313 10892.007813 6182.109375 10879.3125 C 6195.898438 10866.617188 6203.085938 10850.796875 6203.632813 10831.695313 C 6204.140625 10812.59375 6197.890625 10796.1875 6184.84375 10782.398438 C 6171.835938 10768.609375 6155.742188 10761.382813 6136.679688 10760.914063 C 6112.65625 10760.210938 6093.320313 10769.507813 6078.632813 10788.882813 C 6071.796875 10779.507813 6068.59375 10768.296875 6068.945313 10755.40625 C 6069.804688 10726.304688 6077.851563 10704.195313 6093.125 10689.3125 C 6108.398438 10674.3125 6126.25 10667.203125 6146.757813 10667.789063 C 6169.335938 10668.414063 6189.0625 10677.710938 6205.859375 10695.71875 C 6222.695313 10713.609375 6230.664063 10737.90625 6229.804688 10768.414063 C 6228.945313 10799 6243.671875 10814.78125 6274.0625 10815.71875 C 6304.453125 10816.5 6320.078125 10801.8125 6320.898438 10771.617188 C 6321.757813 10741.382813 6330.742188 10717.59375 6347.851563 10700.210938 C 6364.960938 10682.90625 6384.453125 10674.507813 6406.367188 10675.210938 C 6427.578125 10675.796875 6445.664063 10685.71875 6460.664063 10705.015625 C 6475.703125 10724.117188 6482.695313 10751.890625 6481.640625 10787.984375 C 6480.234375 10838.296875 6461.25 10872.203125 6424.6875 10889.585938 C 6408.203125 10897.789063 6399.6875 10910.601563 6399.21875 10928.296875 C 6398.867188 10940.289063 6402.460938 10950.992188 6409.960938 10960.015625 C 6417.5 10969.117188 6427.265625 10973.804688 6439.257813 10974.117188 C 6452.695313 10974.507813 6466.953125 10969.585938 6482.109375 10959.390625 C 6539.765625 10920.601563 6569.648438 10864.3125 6571.71875 10790.71875 Z M 7613.007813 10579 C 7598.90625 10529.3125 7577.5 10488.414063 7548.59375 10456.1875 C 7506.40625 10410.796875 7456.09375 10396.304688 7397.617188 10412.789063 C 7351.992188 10425.71875 7321.289063 10452.28125 7305.585938 10492.710938 C 7300.3125 10505.210938 7292.8125 10545.210938 7283.203125 10612.515625 C 7276.601563 10656.890625 7259.023438 10683.21875 7230.46875 10691.304688 C 7191.679688 10702.203125 7166.992188 10688.804688 7156.289063 10650.914063 C 7152.070313 10635.914063 7151.210938 10619.78125 7153.75 10602.710938 C 7156.210938 10585.484375 7161.601563 10573.414063 7169.765625 10565.914063 C 7182.265625 10552.90625 7186.289063 10538.492188 7181.914063 10522.984375 C 7178.671875 10511.382813 7171.445313 10502.085938 7160.3125 10495.210938 C 7149.101563 10487.984375 7137.734375 10486.109375 7126.171875 10489.3125 C 7118.007813 10491.617188 7111.210938 10496.109375 7105.742188 10502.789063 C 7086.757813 10521.382813 7074.257813 10547.515625 7068.4375 10581.382813 C 7062.539063 10615.210938 7064.179688 10648.414063 7073.359375 10680.992188 C 7084.453125 10720.289063 7104.296875 10749 7132.96875 10767.398438 C 7166.132813 10788.6875 7206.914063 10792.59375 7255.195313 10779 C 7302.8125 10765.601563 7335.3125 10738.804688 7352.617188 10698.492188 C 7360.585938 10679.898438 7368.789063 10638.882813 7377.304688 10575.289063 C 7383.203125 10530.914063 7397.890625 10505.210938 7421.796875 10498.609375 C 7443.515625 10492.398438 7463.710938 10498.804688 7482.304688 10517.984375 C 7500.898438 10537.007813 7515.507813 10565.40625 7526.09375 10602.789063 C 7553.007813 10698.414063 7543.90625 10776.695313 7498.789063 10838.101563 C 7484.6875 10806.382813 7460.3125 10786.1875 7425.390625 10777.085938 C 7395.195313 10768.882813 7362.304688 10769.703125 7326.992188 10779.703125 C 7294.296875 10788.882813 7267.34375 10806.382813 7245.9375 10832.085938 C 7219.609375 10863.804688 7211.679688 10898.101563 7222.1875 10935.40625 C 7233.4375 10975.289063 7260.546875 10999.78125 7303.515625 11009 C 7333.984375 11015.601563 7365.585938 11014.390625 7398.28125 11005.210938 C 7496.289063 10977.59375 7564.101563 10922.515625 7601.71875 10839.898438 C 7636.40625 10762.59375 7640.195313 10675.601563 7613.007813 10579 Z M 7374.101563 10919.507813 C 7335.390625 10930.40625 7313.59375 10927.59375 7308.90625 10910.914063 C 7306.992188 10904.117188 7309.609375 10895.796875 7316.796875 10886.304688 C 7324.101563 10876.695313 7335.507813 10869.78125 7351.09375 10865.40625 C 7368.789063 10860.40625 7383.984375 10859.585938 7396.796875 10863.21875 C 7409.492188 10866.8125 7417.109375 10872.710938 7419.414063 10880.914063 C 7423.90625 10896.8125 7408.789063 10909.703125 7374.101563 10919.507813 Z M 8527.5 10158.804688 C 8503.984375 10112.90625 8474.804688 10077.085938 8440.117188 10051.1875 C 8389.6875 10015.09375 8337.5 10010.914063 8283.515625 10038.6875 C 8241.40625 10060.40625 8216.601563 10092.59375 8209.101563 10135.289063 C 8206.40625 10148.609375 8207.109375 10189.195313 8211.015625 10257.085938 C 8213.398438 10302.007813 8201.40625 10331.1875 8175 10344.78125 C 8139.101563 10363.21875 8112.1875 10355.015625 8094.21875 10319.898438 C 8087.109375 10306.109375 8083.085938 10290.484375 8082.1875 10273.296875 C 8081.210938 10255.914063 8084.101563 10242.90625 8090.585938 10234 C 8100.195313 10218.6875 8101.289063 10203.804688 8093.984375 10189.507813 C 8088.515625 10178.882813 8079.609375 10171.109375 8067.304688 10166.5 C 8054.882813 10161.8125 8043.398438 10162.085938 8032.695313 10167.59375 C 8025.117188 10171.5 8019.296875 10177.203125 8015.3125 10184.898438 C 8000.390625 10206.8125 7993.28125 10234.898438 7994.296875 10269.3125 C 7995.3125 10303.609375 8003.398438 10335.796875 8018.90625 10365.914063 C 8037.617188 10402.28125 8062.8125 10426.5 8094.492188 10438.804688 C 8131.289063 10453.101563 8171.992188 10448.804688 8216.601563 10425.914063 C 8260.585938 10403.296875 8287.109375 10370.601563 8296.09375 10327.710938 C 8300.195313 10307.90625 8300.117188 10265.992188 8295.898438 10202.007813 C 8292.8125 10157.28125 8302.1875 10129.195313 8324.21875 10117.90625 C 8344.296875 10107.59375 8365.390625 10109.898438 8387.382813 10125.015625 C 8409.414063 10139.898438 8429.296875 10164.78125 8447.109375 10199.390625 C 8492.5 10287.710938 8499.101563 10366.304688 8467.109375 10435.40625 C 8446.992188 10407.203125 8418.984375 10392.203125 8383.085938 10390.210938 C 8351.796875 10388.21875 8319.804688 10395.484375 8287.109375 10412.28125 C 8256.914063 10427.789063 8233.90625 10450.40625 8218.085938 10479.78125 C 8198.59375 10515.992188 8197.617188 10551.304688 8215.3125 10585.71875 C 8234.296875 10622.59375 8265.703125 10641.1875 8309.609375 10641.695313 C 8340.898438 10642.085938 8371.601563 10634.703125 8401.796875 10619.195313 C 8492.304688 10572.710938 8547.8125 10505.210938 8568.28125 10416.8125 C 8586.992188 10334.117188 8573.398438 10248.101563 8527.5 10158.804688 Z M 8361.09375 10540.015625 C 8325.195313 10558.414063 8303.398438 10559.898438 8295.507813 10544.507813 C 8292.1875 10538.21875 8293.203125 10529.585938 8298.28125 10518.804688 C 8303.515625 10507.984375 8313.398438 10498.882813 8327.8125 10491.5 C 8344.21875 10483.101563 8358.90625 10479.3125 8372.109375 10480.289063 C 8385.3125 10481.304688 8393.90625 10485.601563 8397.8125 10493.101563 C 8405.390625 10507.90625 8393.085938 10523.492188 8361.09375 10540.015625 Z M 8361.09375 10540.015625 " transform="matrix(0.1,0,0,-0.1,0,1254.9)"/>
<path style="fill-rule:evenodd;fill:rgb(8.227539%,8.616638%,8.616638%);fill-opacity:1;stroke-width:2.16;stroke-linecap:butt;stroke-linejoin:miter;stroke:rgb(8.227539%,8.616638%,8.616638%);stroke-opacity:1;stroke-miterlimit:4;" d="M 4309.101563 2344.976563 L 4546.953125 2240.640625 L 4495.859375 2124.15625 C 4487.1875 2120.210938 4480.078125 2115.054688 4474.570313 2108.609375 C 4469.023438 2102.164063 4464.257813 2095.210938 4460.195313 2087.710938 C 4457.539063 2083.453125 4455.234375 2079.078125 4453.242188 2074.546875 C 4451.25 2070.015625 4449.414063 2065.796875 4447.734375 2061.890625 L 4417.929688 1993.960938 L 4504.726563 2051.96875 C 4511.132813 2056.109375 4517.109375 2060.445313 4522.578125 2064.976563 C 4528.046875 2069.507813 4533.007813 2074.273438 4537.5 2079.273438 C 4542.03125 2084.234375 4546.09375 2089.585938 4549.765625 2095.289063 C 4553.4375 2101.03125 4556.953125 2107.789063 4560.390625 2115.523438 L 4604.21875 2215.523438 L 4818.789063 2121.421875 L 4767.695313 2004.9375 C 4757.578125 2004.742188 4747.96875 2002.59375 4738.828125 1998.492188 C 4729.6875 1994.351563 4720.234375 1989.078125 4710.429688 1982.59375 C 4703.984375 1978.453125 4697.265625 1973.6875 4690.273438 1968.296875 C 4683.242188 1962.867188 4675.78125 1957.28125 4667.851563 1951.460938 L 4570.117188 1884.351563 L 4579.882813 1671.734375 C 4579.765625 1667.90625 4579.765625 1664.390625 4579.921875 1661.265625 C 4580.078125 1658.101563 4580.234375 1654.976563 4580.390625 1651.8125 C 4581.328125 1639.78125 4582.929688 1628.53125 4585.195313 1617.867188 C 4587.460938 1607.242188 4592.382813 1599.078125 4599.960938 1593.453125 L 4552.265625 1484.703125 L 4327.03125 1583.53125 L 4362.382813 1664.078125 C 4367.1875 1675.09375 4370.78125 1687.203125 4373.125 1700.484375 C 4375.46875 1713.726563 4376.835938 1728.765625 4377.265625 1745.523438 L 4369.375 1883.296875 L 4330.625 1794.9375 C 4328.632813 1790.40625 4326.875 1786.34375 4325.3125 1782.789063 C 4323.75 1779.234375 4322.421875 1775.367188 4321.367188 1771.226563 C 4317.382813 1762.164063 4314.921875 1753.023438 4313.984375 1743.765625 C 4313.007813 1734.546875 4314.179688 1725.757813 4317.421875 1717.359375 L 4269.726563 1608.648438 L 4031.875 1712.945313 L 4080 1822.671875 C 4091.484375 1820.71875 4101.367188 1825.601563 4109.648438 1837.4375 C 4117.890625 1849.273438 4125.15625 1862.28125 4131.40625 1876.539063 L 4248.515625 2143.492188 C 4249.648438 2146.109375 4250.9375 2148.960938 4252.34375 2152.242188 C 4253.75 2155.484375 4255.195313 2158.726563 4256.601563 2161.96875 C 4261.054688 2173.882813 4264.101563 2185.640625 4265.742188 2197.28125 C 4267.382813 2208.921875 4264.648438 2218.960938 4257.578125 2227.515625 Z M 5155.664063 2022.28125 L 5472.226563 1961.851563 C 5478.359375 1960.015625 5484.84375 1958.21875 5491.71875 1956.578125 C 5498.59375 1954.898438 5505 1952.710938 5511.015625 1950.171875 C 5554.375 1936.148438 5591.875 1911.1875 5623.515625 1875.289063 C 5655.15625 1839.351563 5665.351563 1791.890625 5654.101563 1732.90625 L 5632.617188 1620.445313 C 5620.820313 1558.6875 5594.921875 1515.210938 5554.882813 1490.132813 C 5514.804688 1465.054688 5460.429688 1459.039063 5391.71875 1472.164063 L 5305.273438 1488.648438 C 5304.726563 1485.875 5304.296875 1483.453125 5303.867188 1481.382813 C 5303.476563 1479.3125 5302.734375 1477.28125 5301.640625 1475.328125 C 5301.523438 1474.625 5301.367188 1473.921875 5301.25 1473.257813 C 5301.132813 1472.554688 5300.9375 1471.460938 5300.664063 1470.132813 C 5300.117188 1467.359375 5299.453125 1464.78125 5298.632813 1462.398438 C 5297.8125 1460.054688 5297.226563 1457.828125 5296.835938 1455.757813 C 5295.234375 1447.398438 5295.429688 1440.015625 5297.421875 1433.492188 C 5299.453125 1427.007813 5303.90625 1421.304688 5310.898438 1416.34375 L 5287.460938 1293.492188 L 5026.054688 1343.375 L 5049.804688 1467.632813 C 5060.742188 1468.414063 5068.554688 1472.671875 5073.28125 1480.40625 C 5078.007813 1488.101563 5081.210938 1496.539063 5082.929688 1505.5625 C 5083.046875 1506.265625 5083.203125 1506.96875 5083.320313 1507.632813 C 5083.476563 1508.335938 5083.59375 1509.039063 5083.710938 1509.742188 L 5147.265625 1842.59375 C 5148.984375 1851.617188 5149.21875 1860.40625 5147.96875 1868.921875 C 5146.71875 1877.4375 5140.859375 1884.46875 5130.429688 1890.054688 Z M 5369.6875 1826.03125 L 5332.890625 1633.414063 C 5334.140625 1632.4375 5335.3125 1631.851563 5336.328125 1631.65625 C 5337.382813 1631.460938 5338.203125 1630.953125 5338.75 1630.132813 C 5339.453125 1630.015625 5340.15625 1629.859375 5340.820313 1629.742188 C 5341.523438 1629.625 5341.875 1629.546875 5341.875 1629.546875 C 5343.945313 1629.117188 5345.664063 1628.648438 5346.992188 1628.023438 C 5348.320313 1627.398438 5349.648438 1626.96875 5351.054688 1626.695313 C 5367.03125 1623.648438 5381.015625 1625.484375 5393.085938 1632.164063 C 5405.15625 1638.84375 5413.203125 1652.632813 5417.1875 1673.453125 L 5431.875 1750.523438 C 5436.367188 1774.117188 5434.0625 1791.109375 5424.882813 1801.460938 C 5415.703125 1811.851563 5397.226563 1819.703125 5369.453125 1825.015625 Z M 5989.765625 1871.890625 L 6583.085938 1891.8125 L 6593.476563 1581.382813 L 6436.679688 1576.109375 L 6432.617188 1696.890625 C 6432.578125 1698.335938 6432.539063 1700.210938 6432.421875 1702.710938 C 6432.34375 1705.210938 6431.914063 1707.867188 6431.09375 1710.601563 C 6429.570313 1714.859375 6426.601563 1718.960938 6422.226563 1723.0625 C 6417.8125 1727.164063 6410.664063 1730.132813 6400.703125 1731.851563 L 6412.148438 1390.015625 C 6412.1875 1388.609375 6412.226563 1387.554688 6412.265625 1386.851563 C 6412.265625 1386.148438 6412.304688 1385.796875 6412.304688 1385.796875 C 6412.8125 1370.953125 6415.195313 1357.085938 6419.53125 1344.117188 C 6423.867188 1331.03125 6430.3125 1323.296875 6438.867188 1320.757813 L 6443.085938 1195.523438 L 6176.054688 1186.578125 L 6172.070313 1306.460938 C 6181.171875 1308.921875 6187.34375 1314.234375 6190.625 1322.671875 C 6193.867188 1330.914063 6195.703125 1339.625 6196.09375 1348.84375 C 6196.015625 1350.953125 6195.9375 1352.90625 6195.898438 1354.664063 C 6195.820313 1356.421875 6195.78125 1358.023438 6195.742188 1359.390625 L 6183.476563 1725.640625 C 6171.484375 1724.585938 6163.632813 1720.796875 6159.960938 1714.273438 C 6156.289063 1707.789063 6154.257813 1700.640625 6153.789063 1692.867188 C 6153.867188 1690.757813 6153.945313 1688.648438 6154.023438 1686.460938 C 6154.101563 1684.351563 6154.140625 1682.28125 6154.21875 1680.171875 L 6158.007813 1566.773438 L 6000.15625 1561.460938 Z M 7274.257813 1740.914063 L 7256.601563 1814.078125 C 7253.789063 1825.757813 7248.515625 1834.117188 7240.742188 1839.15625 C 7232.96875 1844.195313 7225.15625 1846.460938 7217.265625 1846.03125 C 7216.601563 1845.875 7215.742188 1845.640625 7214.6875 1845.445313 C 7213.671875 1845.171875 7212.8125 1844.976563 7212.109375 1844.78125 C 7211.445313 1844.625 7210.9375 1844.507813 7210.585938 1844.390625 C 7210.234375 1844.351563 7209.726563 1844.234375 7209.023438 1844.078125 C 7200.273438 1841.226563 7193.320313 1834.625 7188.164063 1824.3125 C 7183.007813 1813.960938 7182.421875 1800.5625 7186.40625 1784.078125 L 7260.742188 1475.953125 C 7264.023438 1462.203125 7270.351563 1451.851563 7279.609375 1445.054688 C 7288.90625 1438.21875 7298.203125 1435.171875 7307.5 1435.953125 C 7308.085938 1436.109375 7308.59375 1436.226563 7308.984375 1436.304688 C 7309.296875 1436.421875 7309.804688 1436.539063 7310.585938 1436.695313 C 7311.289063 1436.851563 7312.109375 1437.046875 7313.085938 1437.28125 C 7314.101563 1437.554688 7314.882813 1438.101563 7315.390625 1438.960938 C 7322.695313 1442.164063 7328.398438 1448.453125 7332.695313 1457.867188 C 7336.992188 1467.242188 7337.5 1478.804688 7334.101563 1492.554688 L 7308.28125 1599.742188 L 7517.5 1650.171875 L 7569.414063 1434.78125 C 7560.703125 1407.945313 7536.484375 1383.609375 7497.109375 1361.734375 C 7457.695313 1339.859375 7414.101563 1322.085938 7366.601563 1308.414063 C 7362.382813 1307.4375 7358.085938 1306.421875 7353.710938 1305.328125 C 7349.21875 1304.234375 7344.882813 1303.21875 7340.78125 1302.203125 C 7270.039063 1285.171875 7206.757813 1285.914063 7151.054688 1304.390625 C 7095.3125 1322.984375 7058.515625 1369.351563 7040.625 1443.53125 L 6973.75 1720.796875 C 6956.679688 1791.578125 6962.773438 1848.453125 6992.03125 1891.460938 C 7021.25 1934.546875 7074.375 1965.367188 7151.328125 1983.921875 C 7206.289063 1997.164063 7256.289063 2003.765625 7301.40625 2003.726563 C 7346.484375 2003.726563 7391.796875 1996.460938 7437.5 1982.046875 L 7483.515625 1791.382813 Z M 7779.804688 2145.835938 L 8016.601563 2249.742188 L 8067.8125 2133.21875 C 8059.414063 2124.15625 8055.898438 2114.117188 8057.1875 2103.101563 C 8058.59375 2092.164063 8061.601563 2081.148438 8066.484375 2070.171875 C 8067.304688 2068.21875 8068.28125 2065.953125 8069.414063 2063.375 C 8070.585938 2060.757813 8072.109375 2058.335938 8073.789063 2056.03125 C 8075 2053.453125 8076.09375 2050.835938 8077.1875 2048.257813 C 8078.398438 2045.640625 8079.414063 2043.414063 8080.195313 2041.460938 L 8212.1875 1740.484375 C 8233.203125 1748.921875 8247.8125 1758.804688 8256.015625 1770.09375 C 8264.101563 1781.382813 8262.382813 1800.328125 8250.703125 1826.851563 L 8200.117188 1942.398438 L 8379.6875 2021.148438 L 8514.296875 1714.351563 L 8051.09375 1511.265625 L 8003.085938 1620.953125 C 8012.304688 1628.101563 8016.210938 1636.1875 8014.882813 1645.289063 C 8013.710938 1654.351563 8011.210938 1663.101563 8007.5 1671.539063 L 7863.085938 2000.601563 C 7860.3125 2007.125 7856.484375 2013.140625 7851.71875 2018.804688 C 7846.914063 2024.390625 7840.117188 2027.59375 7831.289063 2028.375 Z M 7779.804688 2145.835938 " transform="matrix(0.1,0,0,-0.1,0,1254.9)"/>
<path style="fill-rule:evenodd;fill:rgb(8.227539%,8.616638%,8.616638%);fill-opacity:1;stroke-width:2.16;stroke-linecap:butt;stroke-linejoin:miter;stroke:rgb(8.227539%,8.616638%,8.616638%);stroke-opacity:1;stroke-miterlimit:4;" d="M 6275 11785.601563 C 9318.398438 11785.601563 11785.585938 9318.414063 11785.585938 6275.015625 C 11785.585938 3231.617188 9318.398438 764.429688 6275 764.429688 C 3231.601563 764.429688 764.453125 3231.617188 764.453125 6275.015625 C 764.453125 9318.414063 3231.601563 11785.601563 6275 11785.601563 Z M 6275 11596.8125 C 9214.21875 11596.8125 11596.796875 9214.195313 11596.796875 6275.015625 C 11596.796875 3335.835938 9214.21875 953.140625 6275 953.140625 C 3335.820313 953.140625 953.164063 3335.835938 953.164063 6275.015625 C 953.164063 9214.195313 3335.820313 11596.8125 6275 11596.8125 Z M 6275 11596.8125 " transform="matrix(0.1,0,0,-0.1,0,1254.9)"/>
<g clip-path="url(#clip1)" clip-rule="nonzero">
<path style="fill-rule:evenodd;fill:rgb(8.227539%,8.616638%,8.616638%);fill-opacity:1;stroke-width:2.16;stroke-linecap:butt;stroke-linejoin:miter;stroke:rgb(8.227539%,8.616638%,8.616638%);stroke-opacity:1;stroke-miterlimit:4;" d="M 6275 12548.804688 C 9740 12548.804688 12548.90625 9739.976563 12548.90625 6275.015625 C 12548.90625 2810.054688 9740 1.148438 6275 1.148438 C 2810.039063 1.148438 1.171875 2810.054688 1.171875 6275.015625 C 1.171875 9739.976563 2810.039063 12548.804688 6275 12548.804688 Z M 6275 12307.085938 C 9606.484375 12307.085938 12307.109375 9606.460938 12307.109375 6275.015625 C 12307.109375 2943.53125 9606.484375 242.867188 6275 242.867188 C 2943.554688 242.867188 242.851563 2943.53125 242.851563 6275.015625 C 242.851563 9606.460938 2943.554688 12307.085938 6275 12307.085938 Z M 6275 12307.085938 " transform="matrix(0.1,0,0,-0.1,0,1254.9)"/>
</g>
<path style="fill-rule:evenodd;fill:rgb(8.227539%,8.616638%,8.616638%);fill-opacity:1;stroke-width:2.16;stroke-linecap:butt;stroke-linejoin:miter;stroke:rgb(8.227539%,8.616638%,8.616638%);stroke-opacity:1;stroke-miterlimit:4;" d="M 6080.859375 2507.4375 C 6068.515625 2507.4375 6057.734375 2516.65625 6048.476563 2535.171875 C 6039.257813 2553.648438 6034.609375 2575.210938 6034.609375 2599.898438 L 6034.609375 2692.28125 C 6034.609375 2710.835938 6039.257813 2726.226563 6048.476563 2738.53125 C 6057.734375 2750.875 6068.515625 2757.046875 6080.859375 2757.046875 C 6099.335938 2757.046875 6130.15625 2744.703125 6173.28125 2720.054688 C 6216.445313 2726.226563 6256.523438 2737.007813 6293.515625 2752.4375 C 6330.46875 2767.828125 6361.289063 2784.78125 6385.9375 2803.296875 C 6238.007813 2932.710938 6148.632813 3034.390625 6117.8125 3108.375 C 6062.34375 3089.898438 5980.664063 3077.554688 5872.8125 3071.421875 C 5764.960938 3065.210938 5590.820313 3062.164063 5350.429688 3062.164063 C 5264.140625 3062.164063 5194.804688 3079.117188 5142.421875 3113.023438 C 5090.039063 3146.890625 5063.828125 3191.578125 5063.828125 3247.085938 C 5063.828125 3296.382813 5028.398438 3339.507813 4957.5 3376.460938 C 4886.640625 3413.492188 4798.789063 3432.007813 4694.023438 3432.007813 C 4657.03125 3462.828125 4615.429688 3485.914063 4569.179688 3501.304688 C 4522.96875 3516.734375 4472.109375 3524.390625 4416.640625 3524.390625 C 4348.828125 3703.140625 4302.617188 3949.742188 4277.96875 4264.078125 C 4265.625 4405.835938 4157.734375 4652.398438 3954.335938 5003.726563 C 3954.335938 5108.53125 3892.695313 5293.453125 3769.453125 5558.492188 C 3720.117188 5663.257813 3695.46875 5734.15625 3695.46875 5771.109375 C 3695.46875 5801.890625 3741.71875 5863.53125 3834.179688 5956.03125 C 3858.828125 5980.640625 3877.304688 6009.976563 3889.648438 6043.882813 C 3901.953125 6077.789063 3908.125 6116.304688 3908.125 6159.390625 C 3908.125 6196.421875 3903.476563 6253.453125 3894.257813 6330.484375 C 3885 6407.515625 3880.390625 6464.546875 3880.390625 6501.539063 C 3880.390625 6520.015625 3888.085938 6541.617188 3903.476563 6566.265625 C 3918.90625 6590.914063 3926.601563 6612.476563 3926.601563 6630.953125 C 3926.601563 6643.296875 3921.992188 6658.726563 3912.734375 6677.203125 C 3903.476563 6695.640625 3898.867188 6711.109375 3898.867188 6723.414063 C 3898.867188 6760.40625 3915.820313 6812.789063 3949.726563 6880.601563 C 3983.632813 6948.414063 4000.585938 7000.796875 4000.585938 7037.789063 C 4000.585938 7043.960938 3985.15625 7090.171875 3954.335938 7176.460938 C 3972.851563 7231.890625 4000.585938 7287.398438 4037.578125 7342.867188 C 4074.53125 7398.375 4093.046875 7435.328125 4093.046875 7453.84375 C 4093.046875 7515.484375 4080.703125 7570.953125 4056.054688 7620.210938 C 4031.40625 7669.585938 3997.5 7706.539063 3954.335938 7731.1875 C 3954.335938 7749.703125 3942.03125 7771.265625 3917.382813 7795.914063 C 3892.695313 7820.5625 3858.828125 7845.210938 3815.664063 7869.898438 C 3871.132813 7900.640625 3925.078125 7923.804688 3977.460938 7939.234375 C 4029.84375 7954.625 4083.789063 7962.28125 4139.257813 7962.28125 L 4139.257813 8054.78125 C 4139.257813 8079.46875 4148.515625 8101.03125 4166.992188 8119.507813 C 4185.507813 8138.023438 4207.070313 8147.242188 4231.71875 8147.242188 C 4244.0625 8147.242188 4259.453125 8139.546875 4277.96875 8124.117188 C 4296.445313 8108.726563 4311.875 8085.601563 4324.179688 8054.78125 C 4348.828125 8085.601563 4373.476563 8108.726563 4398.164063 8124.117188 C 4422.8125 8139.546875 4444.375 8147.242188 4462.851563 8147.242188 C 4493.671875 8147.242188 4532.1875 8124.117188 4578.4375 8077.90625 C 4624.648438 8031.695313 4663.203125 8008.53125 4694.023438 8008.53125 C 4718.671875 8008.53125 4740.234375 8031.695313 4758.710938 8077.90625 C 4777.226563 8124.117188 4786.445313 8178.0625 4786.445313 8239.703125 L 5017.617188 8239.703125 C 5017.617188 8264.351563 5026.835938 8285.953125 5045.351563 8304.390625 C 5063.828125 8322.90625 5085.390625 8332.164063 5110.078125 8332.164063 L 5202.5 8332.164063 C 5214.84375 8332.164063 5225.625 8322.90625 5234.882813 8304.390625 C 5244.101563 8285.953125 5248.75 8264.351563 5248.75 8239.703125 L 5341.171875 8285.953125 L 5341.171875 8609.546875 C 5341.171875 8640.367188 5333.476563 8686.578125 5318.085938 8748.21875 C 5302.695313 8809.859375 5294.960938 8856.03125 5294.960938 8886.851563 C 5294.960938 8923.882813 5308.828125 8956.226563 5336.5625 8983.960938 C 5364.296875 9011.734375 5396.679688 9025.601563 5433.671875 9025.601563 C 5482.96875 9025.601563 5526.132813 8990.132813 5563.085938 8919.273438 C 5600.078125 8848.375 5618.554688 8760.5625 5618.554688 8655.757813 L 5895.9375 8655.757813 L 5895.9375 8702.007813 L 6265.742188 8748.21875 C 6321.210938 8748.21875 6365.9375 8752.828125 6399.84375 8762.085938 C 6433.710938 8771.34375 6450.664063 8782.125 6450.664063 8794.390625 C 6450.664063 8868.414063 6464.53125 8933.101563 6492.265625 8988.609375 C 6520 9044.078125 6552.382813 9071.8125 6589.375 9071.8125 L 6774.257813 9071.8125 C 6817.421875 9084.15625 6851.328125 9116.460938 6875.976563 9168.882813 C 6900.625 9221.265625 6912.96875 9281.382813 6912.96875 9349.195313 C 6912.96875 9380.015625 6882.148438 9395.40625 6820.507813 9395.40625 C 6758.867188 9395.40625 6728.046875 9410.835938 6728.046875 9441.65625 C 6728.046875 9478.609375 6752.695313 9521.773438 6801.992188 9571.03125 C 6851.328125 9620.40625 6919.101563 9669.703125 7005.429688 9718.960938 L 7005.429688 9811.382813 L 7097.851563 9903.882813 C 7097.851563 9940.914063 7111.71875 9973.21875 7139.453125 10000.992188 C 7167.226563 10028.6875 7199.570313 10042.59375 7236.5625 10042.59375 C 7322.890625 10011.8125 7384.492188 9996.382813 7421.484375 9996.382813 C 7458.398438 9996.382813 7490.78125 9977.90625 7518.59375 9940.914063 C 7546.289063 9903.882813 7560.195313 9860.71875 7560.195313 9811.382813 L 7560.195313 9441.65625 C 7560.195313 9417.007813 7569.414063 9395.40625 7587.890625 9376.890625 C 7606.40625 9358.414063 7627.890625 9349.195313 7652.617188 9349.195313 C 7701.914063 9349.195313 7745.117188 9339.9375 7781.992188 9321.460938 C 7818.984375 9302.945313 7837.5 9281.382813 7837.5 9256.734375 C 7837.5 9225.914063 7791.289063 9164.273438 7698.789063 9071.8125 C 7631.015625 9040.992188 7575.585938 8999.351563 7532.382813 8947.007813 C 7489.296875 8894.625 7467.695313 8843.765625 7467.695313 8794.390625 L 7560.195313 8794.390625 L 7560.195313 8609.546875 C 7498.515625 8560.210938 7467.695313 8529.351563 7467.695313 8517.085938 L 7467.695313 7962.28125 C 7443.085938 7931.460938 7406.09375 7911.460938 7356.796875 7902.242188 C 7307.382813 7892.984375 7282.8125 7882.203125 7282.8125 7869.898438 L 7282.8125 7777.4375 L 7375.195313 7777.4375 L 7375.195313 7684.976563 C 7399.882813 7691.148438 7426.09375 7700.367188 7453.789063 7712.710938 C 7481.601563 7725.054688 7501.601563 7731.1875 7513.90625 7731.1875 C 7526.289063 7731.1875 7536.992188 7721.96875 7546.289063 7703.453125 C 7555.507813 7684.976563 7560.195313 7663.414063 7560.195313 7638.765625 C 7560.195313 7607.945313 7552.5 7580.171875 7536.992188 7555.523438 C 7521.601563 7530.875 7498.515625 7512.398438 7467.695313 7500.054688 L 7467.695313 6945.328125 C 7418.398438 6945.328125 7376.796875 6949.9375 7342.890625 6959.195313 C 7308.984375 6968.453125 7288.90625 6979.234375 7282.8125 6991.539063 C 7159.492188 6923.765625 7036.210938 6877.515625 6912.96875 6852.867188 L 6912.96875 6575.484375 C 6980.742188 6550.835938 7036.210938 6512.28125 7079.375 6459.9375 C 7122.539063 6407.515625 7144.101563 6353.609375 7144.101563 6298.101563 C 7144.101563 6205.640625 7114.804688 6122.4375 7056.25 6048.492188 C 6997.695313 5974.546875 6919.101563 5919.039063 6820.507813 5882.085938 L 6635.585938 5974.546875 C 6573.945313 5900.5625 6543.125 5854.351563 6543.125 5835.835938 C 6543.125 5817.359375 6555.429688 5798.882813 6580.117188 5780.367188 C 6604.765625 5761.851563 6638.671875 5749.546875 6681.796875 5743.414063 L 6635.585938 5558.492188 C 6691.054688 5539.976563 6735.742188 5516.851563 6769.648438 5489.117188 C 6803.554688 5461.382813 6820.507813 5438.296875 6820.507813 5419.78125 L 6820.507813 5234.898438 C 6820.507813 5222.554688 6834.375 5211.773438 6862.109375 5202.515625 C 6889.84375 5193.257813 6922.1875 5188.648438 6959.179688 5188.648438 C 6990 5188.648438 7036.210938 5204.078125 7097.851563 5234.898438 C 7159.492188 5265.71875 7205.742188 5281.109375 7236.5625 5281.109375 C 7273.554688 5281.109375 7305.898438 5271.851563 7333.59375 5253.375 C 7361.40625 5234.898438 7375.195313 5213.296875 7375.195313 5188.648438 L 7375.195313 5003.726563 L 7236.5625 4911.304688 L 6912.96875 4985.210938 L 6912.96875 4865.054688 C 6912.96875 4840.40625 6917.578125 4820.367188 6926.835938 4804.976563 C 6936.054688 4789.546875 6946.835938 4778.765625 6959.179688 4772.59375 L 6949.921875 4633.921875 C 7097.851563 4757.203125 7178.007813 4818.84375 7190.3125 4818.84375 C 7227.304688 4818.84375 7265.820313 4788.023438 7305.898438 4726.382813 C 7346.015625 4664.742188 7384.492188 4633.921875 7421.484375 4633.921875 C 7464.609375 4633.921875 7541.601563 4680.132813 7652.617188 4772.59375 C 7708.085938 4815.757813 7758.90625 4849.664063 7805.195313 4874.3125 C 7851.40625 4898.960938 7893.007813 4911.304688 7930 4911.304688 C 7979.296875 4911.304688 8036.289063 4878.921875 8101.015625 4814.195313 C 8165.703125 4749.46875 8231.992188 4658.53125 8299.804688 4541.460938 L 8438.515625 4541.460938 C 8463.085938 4541.460938 8484.6875 4522.945313 8503.203125 4485.992188 C 8521.71875 4448.960938 8530.898438 4405.835938 8530.898438 4356.539063 C 8530.898438 4307.242188 8543.28125 4265.601563 8567.890625 4231.734375 C 8592.617188 4197.828125 8626.484375 4177.789063 8669.609375 4171.617188 C 8725.117188 4159.3125 8769.804688 4136.1875 8803.710938 4102.28125 C 8837.617188 4068.375 8854.492188 4029.859375 8854.492188 3986.734375 C 8854.492188 3962.085938 8836.09375 3940.484375 8799.101563 3922.007813 C 8762.109375 3903.492188 8718.90625 3894.273438 8669.609375 3894.273438 C 8669.609375 3820.289063 8645 3749.390625 8595.703125 3681.617188 C 8546.289063 3613.804688 8478.59375 3561.421875 8392.304688 3524.390625 C 8392.304688 3475.132813 8383.007813 3432.007813 8364.492188 3395.015625 C 8346.015625 3358.023438 8324.414063 3339.507813 8299.804688 3339.507813 C 8275.195313 3339.507813 8247.382813 3351.851563 8216.601563 3376.460938 C 8185.78125 3401.148438 8151.914063 3435.054688 8114.882813 3478.21875 C 7991.601563 3447.398438 7791.289063 3293.296875 7513.90625 3015.953125 C 7476.914063 2948.101563 7430.703125 2886.460938 7375.195313 2831.03125 C 7319.804688 2775.523438 7258.125 2729.3125 7190.3125 2692.28125 C 7190.3125 2655.367188 7181.09375 2622.984375 7162.578125 2595.210938 C 7144.101563 2567.515625 7122.539063 2553.648438 7097.851563 2553.648438 C 7091.71875 2553.648438 7079.375 2564.390625 7060.898438 2585.992188 C 7042.382813 2607.59375 7023.90625 2627.59375 7005.429688 2646.109375 C 6882.148438 2602.945313 6741.914063 2569.078125 6584.726563 2544.351563 C 6427.539063 2519.742188 6259.609375 2507.4375 6080.859375 2507.4375 Z M 5044.023438 4949.351563 L 5606.875 4625.367188 L 5189.375 4385.054688 L 4802.539063 4385.054688 Z M 6127.070313 2590.601563 C 6281.171875 2590.601563 6435.273438 2604.507813 6589.375 2632.242188 C 6743.4375 2659.976563 6891.367188 2698.492188 7033.125 2747.828125 C 7051.640625 2735.484375 7065.507813 2715.445313 7074.765625 2687.710938 C 7083.984375 2659.976563 7091.71875 2646.109375 7097.851563 2646.109375 C 7104.023438 2646.109375 7110.195313 2655.367188 7116.367188 2673.84375 C 7122.539063 2692.28125 7125.585938 2717.007813 7125.585938 2747.828125 C 7187.226563 2784.78125 7244.257813 2831.03125 7296.601563 2886.460938 C 7348.984375 2941.96875 7396.796875 3003.609375 7440 3071.421875 C 7741.992188 3373.414063 7976.210938 3546.03125 8142.617188 3589.15625 C 8228.90625 3484.351563 8281.289063 3432.007813 8299.804688 3432.007813 C 8306.015625 3432.007813 8309.101563 3481.304688 8309.101563 3579.9375 C 8395.390625 3616.851563 8463.085938 3670.835938 8512.5 3741.734375 C 8561.796875 3812.59375 8586.40625 3885.015625 8586.40625 3958.960938 C 8635.703125 3958.960938 8677.304688 3963.609375 8711.289063 3972.867188 C 8745.117188 3982.085938 8762.109375 3992.867188 8762.109375 4005.210938 C 8762.109375 4023.6875 8751.289063 4042.203125 8729.6875 4060.640625 C 8708.085938 4079.195313 8681.914063 4091.460938 8651.09375 4097.671875 C 8589.492188 4109.976563 8538.59375 4140.796875 8498.59375 4190.132813 C 8458.515625 4239.390625 8438.515625 4294.898438 8438.515625 4356.539063 C 8438.515625 4418.140625 8438.515625 4448.960938 8438.515625 4448.960938 L 8253.59375 4448.960938 C 8185.78125 4572.28125 8124.101563 4664.742188 8068.59375 4726.382813 C 8013.203125 4788.023438 7966.914063 4818.84375 7930 4818.84375 C 7905.3125 4818.84375 7874.492188 4808.0625 7837.5 4786.460938 C 7800.585938 4764.898438 7757.382813 4735.601563 7708.085938 4698.648438 C 7646.40625 4649.3125 7591.015625 4610.796875 7541.601563 4583.0625 C 7492.304688 4555.328125 7452.304688 4541.460938 7421.484375 4541.460938 C 7384.492188 4541.460938 7346.015625 4572.28125 7305.898438 4633.921875 C 7265.820313 4695.5625 7227.304688 4726.382813 7190.3125 4726.382813 C 7190.3125 4726.382813 7100.9375 4652.398438 6922.1875 4504.46875 C 6922.1875 4541.460938 6917.578125 4573.804688 6908.320313 4601.578125 C 6899.101563 4629.273438 6888.28125 4646.265625 6875.976563 4652.398438 C 6857.5 4658.53125 6843.59375 4681.695313 6834.375 4721.734375 C 6825.117188 4761.8125 6820.507813 4809.585938 6820.507813 4865.054688 L 6838.984375 5059.234375 L 7218.046875 5012.984375 L 7282.8125 5049.976563 L 7282.8125 5188.648438 C 7282.8125 5188.648438 7276.601563 5188.648438 7264.296875 5188.648438 C 7251.953125 5188.648438 7242.734375 5188.648438 7236.5625 5188.648438 C 7205.742188 5188.648438 7159.492188 5176.34375 7097.851563 5151.65625 C 7036.210938 5127.007813 6990 5114.703125 6959.179688 5114.703125 C 6897.539063 5114.703125 6843.59375 5127.007813 6797.382813 5151.65625 C 6751.171875 5176.34375 6728.046875 5204.078125 6728.046875 5234.898438 L 6728.046875 5419.78125 C 6728.046875 5425.953125 6660.234375 5453.6875 6524.648438 5502.984375 L 6570.859375 5678.6875 C 6533.867188 5684.78125 6504.609375 5703.335938 6483.046875 5734.15625 C 6461.445313 5764.976563 6450.664063 5798.882813 6450.664063 5835.835938 C 6450.664063 5873.335938 6490.273438 5941.109375 6569.414063 6039.15625 L 6006.015625 5704.195313 C 6002.5 5702.085938 5998.671875 5700.914063 5994.804688 5700.5625 L 6007.109375 5565.640625 L 6526.328125 4352.28125 L 6082.851563 4352.28125 L 6024.375 4385.054688 L 5639.648438 4606.460938 L 5254.960938 4385.054688 L 5198.476563 4352.28125 L 4753.4375 4352.28125 L 5272.226563 5565.640625 L 5283.90625 5693.609375 C 5279.960938 5693.960938 5276.054688 5695.171875 5272.460938 5697.359375 L 4663.320313 6066.734375 C 4662.421875 6067.164063 4661.523438 6067.671875 4660.742188 6068.296875 L 4655.117188 6071.695313 L 4018.632813 6206.1875 C 4016.289063 6131.148438 4004.101563 6064.703125 3982.109375 6006.851563 C 3957.421875 5942.164063 3923.515625 5894.351563 3880.390625 5863.53125 C 3849.570313 5832.710938 3826.445313 5805.015625 3811.054688 5780.367188 C 3795.625 5755.71875 3787.929688 5737.203125 3787.929688 5724.898438 C 3874.21875 5576.96875 3938.945313 5444.46875 3982.109375 5327.359375 C 4025.234375 5210.210938 4046.796875 5111.617188 4046.796875 5031.460938 C 4250.234375 4680.132813 4358.085938 4427.4375 4370.390625 4273.335938 C 4395.078125 3977.476563 4435.117188 3755.5625 4490.585938 3607.632813 C 4533.75 3607.632813 4576.875 3599.9375 4620.039063 3584.546875 C 4663.203125 3569.117188 4700.15625 3549.117188 4730.976563 3524.390625 C 4848.085938 3524.390625 4948.242188 3496.695313 5031.484375 3441.226563 C 5114.6875 3385.757813 5156.289063 3321.03125 5156.289063 3247.085938 C 5156.289063 3216.265625 5173.242188 3193.101563 5207.148438 3177.710938 C 5241.054688 3162.28125 5288.789063 3154.625 5350.429688 3154.625 C 5794.21875 3154.625 6065.429688 3173.101563 6164.0625 3210.09375 C 6201.054688 3111.460938 6321.210938 2975.875 6524.648438 2803.296875 C 6524.648438 2766.304688 6487.65625 2732.398438 6413.671875 2701.578125 C 6339.726563 2670.757813 6244.179688 2646.109375 6127.070313 2627.59375 Z M 6629.648438 6075.054688 L 6820.507813 5983.765625 C 6888.28125 6008.453125 6943.789063 6050.054688 6986.914063 6108.609375 C 7030.078125 6167.164063 7051.640625 6230.328125 7051.640625 6298.101563 C 7051.640625 6341.265625 7030.078125 6382.867188 6986.914063 6422.945313 C 6943.789063 6462.984375 6888.28125 6495.367188 6820.507813 6520.015625 L 6820.507813 6891.03125 L 6642.890625 6732.59375 C 6641.640625 6731.460938 6640.46875 6730.601563 6639.023438 6729.703125 L 5969.6875 6321.695313 L 6581.328125 6108.375 L 6600.625 6119.859375 C 6613.242188 6127.359375 6629.6875 6123.140625 6637.226563 6110.523438 C 6644.375 6098.492188 6640.9375 6082.984375 6629.648438 6075.054688 Z M 6846.875 6930.914063 C 6923.789063 6943.6875 6998.203125 6963.882813 7070.117188 6991.539063 C 7150.273438 7022.359375 7227.304688 7059.351563 7301.289063 7102.476563 C 7307.382813 7083.960938 7318.203125 7068.609375 7333.59375 7056.265625 C 7348.984375 7043.960938 7362.890625 7037.789063 7375.195313 7037.789063 L 7375.195313 7509.3125 C 7406.09375 7521.65625 7429.21875 7538.53125 7444.609375 7560.132813 C 7460 7581.734375 7467.695313 7607.945313 7467.695313 7638.765625 C 7455.390625 7638.765625 7429.21875 7627.945313 7389.101563 7606.382813 C 7348.984375 7584.78125 7313.59375 7570.953125 7282.8125 7564.78125 L 7282.8125 7684.976563 L 7217.03125 7684.976563 C 7216.992188 7675.09375 7211.484375 7665.601563 7202.070313 7660.953125 L 6637.890625 7385.132813 L 5916.171875 6949.351563 L 6606.054688 6772.203125 L 6609.140625 6774.078125 L 6802.695313 6946.773438 C 6813.671875 6956.578125 6830.625 6955.601563 6840.429688 6944.625 C 6843.984375 6940.601563 6846.132813 6935.835938 6846.875 6930.914063 Z M 7190.3125 7711.65625 L 7190.3125 7916.109375 C 7190.3125 7928.453125 7213.4375 7940.757813 7259.648438 7953.101563 C 7305.898438 7965.40625 7344.414063 7983.921875 7375.195313 8008.53125 L 7375.195313 8517.085938 C 7375.195313 8535.5625 7382.890625 8557.164063 7398.398438 8581.773438 C 7413.789063 8606.460938 7436.914063 8631.109375 7467.695313 8655.757813 L 7467.695313 8702.007813 L 7356.796875 8702.007813 C 7356.796875 8788.296875 7382.890625 8871.460938 7435.3125 8951.617188 C 7487.695313 9031.734375 7560.195313 9099.546875 7652.617188 9155.015625 C 7683.398438 9167.359375 7706.484375 9182.789063 7721.914063 9201.265625 C 7737.304688 9219.742188 7745.117188 9238.257813 7745.117188 9256.734375 C 7671.09375 9256.734375 7606.40625 9275.210938 7550.898438 9312.203125 C 7495.390625 9349.195313 7467.695313 9392.28125 7467.695313 9441.65625 L 7467.695313 9811.382813 C 7467.695313 9836.109375 7463.085938 9857.710938 7453.789063 9876.1875 C 7444.609375 9894.585938 7433.789063 9903.882813 7421.484375 9903.882813 C 7378.28125 9903.882813 7313.59375 9919.3125 7227.304688 9950.210938 C 7214.960938 9950.210938 7204.179688 9940.914063 7194.921875 9922.398438 C 7185.703125 9903.882813 7181.09375 9882.28125 7181.09375 9857.710938 L 7097.851563 9774.46875 L 7097.851563 9672.789063 C 6943.789063 9586.460938 6854.375 9515.601563 6829.726563 9460.132813 C 6879.0625 9460.132813 6920.664063 9453.960938 6954.570313 9441.65625 C 6988.476563 9429.3125 7005.429688 9413.882813 7005.429688 9395.40625 C 7005.429688 9290.601563 6986.914063 9201.265625 6949.921875 9127.28125 C 6912.96875 9053.335938 6863.632813 9003.960938 6801.992188 8979.351563 L 6607.851563 8979.351563 C 6589.375 8979.351563 6573.945313 8960.875 6561.640625 8923.882813 C 6549.296875 8886.851563 6543.125 8843.765625 6543.125 8794.390625 C 6543.125 8757.476563 6516.953125 8725.09375 6464.53125 8697.359375 C 6412.148438 8669.625 6348.984375 8655.757813 6275 8655.757813 L 5988.398438 8618.765625 L 5988.398438 8563.296875 L 5666.367188 8563.296875 L 5666.367188 8043.296875 L 5798.75 7847.398438 L 5814.179688 7678.53125 C 5816.484375 7675.875 5818.007813 7672.515625 5818.203125 7668.84375 C 5818.398438 7665.601563 5817.5 7662.476563 5815.898438 7659.742188 L 5817.148438 7646.265625 L 6606.328125 7428.492188 L 6611.289063 7431.460938 C 6611.992188 7431.890625 6612.617188 7432.28125 6613.359375 7432.632813 L 7178.59375 7708.960938 C 7182.382813 7710.796875 7186.367188 7711.695313 7190.3125 7711.65625 Z M 5612.96875 8563.296875 L 5535.351563 8563.296875 C 5535.351563 8668.101563 5526.132813 8755.914063 5507.617188 8826.8125 C 5489.140625 8897.710938 5464.492188 8933.101563 5433.671875 8933.101563 C 5421.328125 8933.101563 5410.546875 8928.53125 5401.289063 8919.273438 C 5392.03125 8910.015625 5387.421875 8899.234375 5387.421875 8886.851563 C 5387.421875 8856.03125 5395.117188 8809.859375 5410.546875 8748.21875 C 5425.9375 8686.578125 5433.671875 8640.367188 5433.671875 8609.546875 L 5433.671875 8230.445313 L 5174.765625 8101.03125 C 5174.765625 8125.640625 5177.851563 8154.9375 5184.023438 8188.84375 C 5190.195313 8222.710938 5190.195313 8239.703125 5184.023438 8239.703125 L 5110.078125 8239.703125 C 5097.734375 8239.703125 5091.5625 8208.882813 5091.5625 8147.242188 L 4869.6875 8147.242188 C 4869.6875 8085.601563 4852.734375 8031.695313 4818.828125 7985.445313 C 4784.921875 7939.234375 4743.320313 7916.109375 4694.023438 7916.109375 C 4663.203125 7916.109375 4624.648438 7939.234375 4578.4375 7985.445313 C 4532.1875 8031.695313 4493.671875 8054.78125 4462.851563 8054.78125 C 4444.375 8054.78125 4391.992188 8002.398438 4305.703125 7897.632813 C 4256.367188 8002.398438 4231.71875 8054.78125 4231.71875 8054.78125 L 4213.242188 7879.117188 C 4163.945313 7879.117188 4120.78125 7876.03125 4083.789063 7869.898438 C 4046.796875 7863.726563 4019.0625 7854.46875 4000.585938 7842.164063 C 4012.929688 7835.992188 4022.148438 7828.296875 4028.320313 7819.039063 C 4034.492188 7809.78125 4037.578125 7798.960938 4037.578125 7786.695313 C 4080.703125 7762.007813 4116.132813 7718.882813 4143.90625 7657.242188 C 4154.492188 7633.648438 4163.085938 7609.195313 4169.609375 7583.804688 C 4174.0625 7584.859375 4178.867188 7584.742188 4183.515625 7583.296875 L 4662.1875 7434.117188 C 4664.375 7433.453125 4666.132813 7432.671875 4668.046875 7431.460938 L 4673.007813 7428.492188 L 5462.226563 7646.265625 L 5463.4375 7659.742188 C 5461.835938 7662.476563 5460.9375 7665.601563 5461.132813 7668.84375 C 5461.367188 7672.515625 5462.851563 7675.875 5465.15625 7678.53125 L 5480.585938 7847.398438 L 5612.96875 8043.296875 Z M 4180.546875 7528.257813 C 4183.828125 7504.195313 4185.507813 7479.351563 4185.507813 7453.84375 C 4185.507813 7435.328125 4168.554688 7398.375 4134.648438 7342.867188 C 4100.742188 7287.398438 4074.53125 7231.890625 4056.054688 7176.460938 C 4073.632813 7128.101563 4084.960938 7090.71875 4090 7064.3125 C 4094.921875 7064.898438 4100.039063 7064.117188 4104.804688 7061.773438 L 4667.539063 6785.757813 C 4668.398438 6785.328125 4669.101563 6784.9375 4669.921875 6784.390625 L 4684.804688 6775.171875 L 5363.164063 6949.351563 L 4643.203125 7384.078125 Z M 4091.757813 7008.648438 C 4088.359375 6969.039063 4078.007813 6929.46875 4060.664063 6889.859375 C 4039.101563 6840.5625 4009.804688 6791.226563 3972.851563 6741.890625 C 4003.671875 6655.601563 4019.0625 6609.351563 4019.0625 6603.21875 C 4019.0625 6584.742188 4011.367188 6561.617188 3995.9375 6533.882813 C 3980.546875 6506.148438 3972.851563 6483.023438 3972.851563 6464.546875 C 3972.851563 6439.898438 3980.546875 6401.382813 3995.9375 6348.960938 C 4006.640625 6312.671875 4013.632813 6283.023438 4016.875 6260.015625 C 4019.414063 6260.210938 4021.992188 6260.09375 4024.609375 6259.546875 L 4670.585938 6123.023438 C 4673.710938 6122.359375 4676.25 6121.382813 4678.945313 6119.742188 L 4697.773438 6108.296875 L 5309.921875 6321.851563 L 4642.773438 6738.375 Z M 5877.226563 6988.257813 L 6549.921875 7394.46875 L 5840.117188 7394.46875 Z M 4769.101563 6065.054688 L 5289.023438 5749.78125 L 5317.8125 6065.054688 Z M 4729.414063 7394.46875 L 5402.109375 6988.257813 L 5439.21875 7394.46875 Z M 4743.945313 6738.21875 L 5345 6362.945313 L 5372.96875 6669.195313 C 5372.96875 6669.234375 5372.96875 6669.234375 5372.96875 6669.234375 L 5379.296875 6738.21875 Z M 5934.335938 6362.710938 L 6550.3125 6738.21875 L 5900.039063 6738.21875 Z M 5989.6875 5756.617188 L 6508.476563 6065.054688 L 5961.523438 6065.054688 Z M 5654.609375 8014.78125 C 5650.351563 8011.851563 5645.195313 8010.171875 5639.6875 8010.171875 C 5634.140625 8010.171875 5628.984375 8011.851563 5624.726563 8014.78125 L 5520.898438 7860.992188 L 5639.6875 7787.515625 L 5758.4375 7860.992188 Z M 5531.796875 6065.054688 L 5345.390625 6007.203125 L 5350.664063 6065.054688 Z M 5238.085938 6097.789063 L 5335.078125 6254.195313 L 5320.820313 6097.789063 Z M 4872.265625 6134.507813 L 4946.40625 6097.789063 L 4767.070313 6097.789063 Z M 5478.476563 6738.21875 L 5408.476563 6697.789063 L 5412.148438 6738.21875 Z M 5324.492188 6770.953125 L 5391.875 6876.03125 L 5382.265625 6770.953125 Z M 4902.34375 6797.242188 L 4902.265625 6797.085938 L 4951.09375 6770.953125 L 4800 6770.953125 Z M 5472.8125 7394.46875 L 5608.710938 7309.78125 L 5455.625 7214.390625 L 5472.070313 7394.46875 Z M 5329.179688 7427.203125 L 5456.328125 7582.007813 L 5442.1875 7427.203125 Z M 4907.421875 7459.234375 L 4958.984375 7427.203125 L 4791.289063 7427.203125 Z M 6320.351563 7427.203125 L 6371.914063 7459.234375 L 6488.046875 7427.203125 Z M 5823.007813 7582.007813 L 5950.15625 7427.203125 L 5837.148438 7427.203125 Z M 5639.6875 7394.46875 L 5744.648438 7394.46875 L 5639.648438 7329.078125 L 5534.6875 7394.46875 Z M 5639.6875 7518.492188 L 5754.882813 7427.203125 L 5524.492188 7427.203125 Z M 5515.195313 7617.164063 L 5613.320313 7539.351563 L 5475.3125 7430.015625 L 5492.421875 7617.164063 Z M 5511.679688 7828.140625 L 5608.554688 7768.257813 L 5500.078125 7701.148438 Z M 5779.257813 7701.148438 L 5670.78125 7768.257813 L 5767.65625 7828.140625 Z M 5764.140625 7617.164063 L 5786.914063 7617.164063 L 5804.023438 7430.015625 L 5666.015625 7539.351563 Z M 5639.6875 7617.164063 L 5711.445313 7617.164063 L 5639.6875 7560.210938 L 5567.890625 7617.164063 Z M 5505.898438 7666.265625 L 5639.6875 7748.960938 L 5773.4375 7666.265625 L 5752.734375 7649.859375 L 5526.601563 7649.859375 Z M 5985.078125 7436.226563 L 5847.265625 7603.960938 L 6075.351563 7541.03125 Z M 6219.570313 7427.203125 L 6020.46875 7427.203125 L 6106.25 7526.773438 Z M 6168.945313 7515.210938 L 6328.984375 7471.03125 L 6264.6875 7431.148438 Z M 5203.984375 7541.03125 L 5432.070313 7603.960938 L 5294.257813 7436.226563 Z M 5014.648438 7431.148438 L 4950.351563 7471.03125 L 5110.390625 7515.210938 Z M 5173.085938 7526.773438 L 5258.867188 7427.203125 L 5059.765625 7427.203125 Z M 5823.710938 7214.351563 L 5670.625 7309.78125 L 5806.523438 7394.46875 L 5807.265625 7394.46875 Z M 6328.242188 6770.953125 L 6377.070313 6797.085938 L 6377.03125 6797.242188 L 6479.335938 6770.953125 Z M 5887.460938 6876.03125 L 5954.84375 6770.953125 L 5897.070313 6770.953125 Z M 5870.898438 6697.789063 L 5800.859375 6738.21875 L 5867.1875 6738.21875 Z M 6332.929688 6097.789063 L 6407.03125 6134.507813 L 6512.265625 6097.789063 Z M 5951.523438 6174.546875 C 5951.523438 6174.585938 5951.523438 6174.585938 5951.523438 6174.585938 L 5944.257813 6254.195313 L 6041.25 6097.789063 L 5958.554688 6097.789063 Z M 5933.945313 6007.203125 L 5747.539063 6065.054688 L 5928.671875 6065.054688 Z M 6181.875 4956.382813 L 5639.648438 4644.273438 L 5097.460938 4956.382813 Z M 5164.609375 5231.03125 L 5573.476563 5126.734375 L 5064.335938 4996.8125 Z M 5297.1875 5540.835938 L 5592.773438 5430.796875 L 5185.117188 5279.039063 Z M 5320.585938 5735.445313 L 5579.882813 5661.65625 L 5306.757813 5583.882813 Z M 5639.6875 5891.460938 L 5378.90625 5983.335938 L 5639.6875 6064.3125 L 5900.429688 5983.335938 Z M 5954.648438 5780.523438 L 5688.90625 5874.117188 L 5938.085938 5961.851563 Z M 5639.648438 5678.648438 L 5360.039063 5758.257813 L 5639.648438 5856.773438 L 5919.296875 5758.257813 Z M 5699.453125 5661.65625 L 5958.75 5735.445313 L 5972.617188 5583.882813 Z M 5405.546875 5577.984375 L 5639.6875 5644.625 L 5873.789063 5577.984375 Z M 5900.195313 5545.210938 L 5639.6875 5448.257813 L 5379.140625 5545.210938 Z M 5639.6875 5143.609375 L 5209.804688 5253.296875 L 5639.6875 5413.335938 L 6069.53125 5253.296875 Z M 6112.773438 4989.117188 L 5166.5625 4989.117188 L 5639.6875 5109.78125 Z M 5705.859375 5126.734375 L 6114.726563 5231.03125 L 6215 4996.8125 Z M 6094.21875 5279.039063 L 5686.5625 5430.796875 L 5982.148438 5540.835938 Z M 5358.59375 6151.578125 L 5531.796875 6097.789063 L 5353.671875 6097.789063 Z M 5548.203125 6337.398438 L 5375.546875 6337.398438 L 5382.65625 6415.367188 Z M 5903.789063 6337.398438 L 5731.132813 6337.398438 L 5896.679688 6415.367188 Z M 5920.742188 6151.578125 L 5925.664063 6097.789063 L 5747.539063 6097.789063 Z M 5694.53125 6304.664063 L 5906.796875 6304.664063 L 5916.328125 6200.210938 Z M 5363.007813 6200.210938 L 5372.578125 6304.664063 L 5584.804688 6304.664063 Z M 5639.648438 6294.3125 L 5890.15625 6176.34375 L 5639.648438 6098.53125 L 5389.179688 6176.34375 Z M 5639.6875 6337.398438 L 5625.039063 6337.398438 L 5408.085938 6439.585938 L 5639.648438 6540.640625 L 5871.210938 6439.585938 L 5654.296875 6337.398438 Z M 6070.351563 6112.984375 L 5960.390625 6290.289063 L 6138.710938 6228.0625 Z M 6233.046875 6097.789063 L 6099.414063 6097.789063 L 6163.59375 6205.835938 Z M 6202.5 6205.835938 L 6363.75 6149.585938 L 6268.867188 6102.59375 Z M 5892.03125 6466.226563 L 5680.546875 6558.53125 L 5875.820313 6643.765625 Z M 5639.6875 6738.21875 L 5735.390625 6738.21875 L 5853.789063 6669.859375 L 5639.648438 6576.382813 L 5425.546875 6669.859375 L 5543.945313 6738.21875 Z M 5639.648438 6793.453125 L 5678.671875 6770.953125 L 5600.664063 6770.953125 Z M 5606.914063 6812.359375 L 5535.195313 6770.953125 L 5415.15625 6770.953125 L 5428.320313 6915.445313 Z M 5639.648438 7087.710938 L 5468.476563 7183.84375 L 5639.648438 7290.484375 L 5810.859375 7183.84375 Z M 5845.859375 6971.890625 L 5673.085938 7068.921875 L 5828.984375 7156.460938 Z M 5851.015625 6915.445313 L 5864.21875 6770.953125 L 5744.140625 6770.953125 L 5672.421875 6812.359375 Z M 5484.101563 6962.789063 L 5639.648438 7050.171875 L 5795.234375 6962.789063 Z M 5639.6875 6930.054688 L 5810.859375 6930.054688 L 5639.648438 6831.265625 L 5468.476563 6930.054688 Z M 5987.578125 6780.523438 L 5898.007813 6920.210938 L 6080.429688 6873.375 Z M 6214.257813 6770.953125 L 6024.296875 6770.953125 L 6106.09375 6852.789063 Z M 6160.234375 6852.90625 L 6330.351563 6809.195313 L 6264.53125 6773.960938 Z M 5450.351563 7156.460938 L 5606.25 7068.921875 L 5433.476563 6971.890625 Z M 5198.90625 6873.375 L 5381.328125 6920.210938 L 5291.757813 6780.523438 Z M 5014.804688 6773.960938 L 4948.984375 6809.195313 L 5119.101563 6852.90625 Z M 5173.203125 6852.789063 L 5255.039063 6770.953125 L 5065.078125 6770.953125 Z M 5403.515625 6643.765625 L 5598.75 6558.53125 L 5387.304688 6466.226563 Z M 5140.585938 6228.101563 L 5318.984375 6290.367188 L 5208.984375 6112.984375 Z M 5010.46875 6102.59375 L 4915.546875 6149.585938 L 5076.875 6205.875 Z M 5115.742188 6205.835938 L 5179.921875 6097.789063 L 5046.289063 6097.789063 Z M 5341.25 5961.851563 L 5590.429688 5874.117188 L 5324.6875 5780.523438 Z M 5672.460938 4625.367188 L 6235.3125 4949.351563 L 6476.796875 4385.054688 L 6090 4385.054688 Z M 5672.460938 4625.367188 " transform="matrix(0.1,0,0,-0.1,0,1254.9)"/>
</g>
</svg>
