<?xml version="1.0" encoding="UTF-8"?>
<svg width="128px" height="40px" viewBox="0 0 128 40" version="1.1" xmlns="http://www.w3.org/2000/svg" xmlns:xlink="http://www.w3.org/1999/xlink">
    <!-- Generator: Sketch 46.2 (44496) - http://www.bohemiancoding.com/sketch -->
    <title>Logo</title>
    <desc>Created with Sketch.</desc>
    <defs>
        <polygon id="path-1" points="7.6452507 6.89655172 0.280743662 6.89655172 0.280743662 0.260602669 7.6452507 0.260602669 7.6452507 6.89655172"></polygon>
    </defs>
    <g id="header" stroke="none" stroke-width="1" fill="none" fill-rule="evenodd">
        <g id="Header-3" transform="translate(-40.000000, -30.000000)">
            <g id="Logo" transform="translate(40.000000, 30.000000)">
                <g>
                    <g>
                        <g id="Group-14" transform="translate(49.577465, 0.032552)" fill="#005285">
                            <path d="M22.8639099,13.4571494 C22.5028958,12.9251954 22.0886986,12.4691034 21.6226704,12.0893333 C21.1566423,11.7095632 20.6649239,11.3950805 20.1488676,11.1463448 C19.6323606,10.8971494 19.1122479,10.7123218 18.5907831,10.5941609 C18.0684169,10.4746207 17.5753465,10.4093333 17.1079662,10.3982989 L17.0746141,10.3982989 L7.11224789,10.3982989 C6.29016338,10.3982989 5.64926197,10.1518621 5.18864225,9.65898851 C4.72757183,9.16611494 4.49681127,8.49577011 4.49681127,7.64611494 C4.49681127,6.80749425 4.72757183,6.13347126 5.18864225,5.62312644 C5.64926197,5.11370115 6.29016338,4.85852874 7.11224789,4.85852874 L21.8556845,4.85852874 L21.8556845,0.440137931 L7.11224789,0.440137931 C6.41365634,0.440137931 5.65827606,0.567494253 4.84700845,0.822666667 C4.03619155,1.07783908 3.2844169,1.49163218 2.59033239,2.06358621 C1.89534648,2.63554023 1.31844507,3.37714943 0.857374648,4.28887356 C0.396304225,5.20151724 0.165994366,6.31967816 0.165994366,7.64611494 C0.165994366,8.97117241 0.396304225,10.0925517 0.857374648,11.0102529 C1.31844507,11.9284138 1.89534648,12.670023 2.59033239,13.2369195 C3.2844169,13.8028966 4.03619155,14.213931 4.84700845,14.4681839 C5.65827606,14.7233563 6.41365634,14.8516322 7.11224789,14.8516322 L17.0746141,14.8516322 C17.473938,14.8516322 17.8376563,14.9192184 18.165769,15.0553103 C18.493431,15.1909425 18.7706141,15.3831264 18.9986704,15.6323218 C19.2267268,15.8824368 19.4016,16.1766897 19.5237408,16.516 C19.6458817,16.8557701 19.7076282,17.2304828 19.7076282,17.6378391 C19.7076282,18.4764598 19.4755155,19.1449655 19.0157972,19.6428966 C18.5551775,20.1422069 17.9079662,20.3909425 17.0746141,20.3909425 L0.506726761,20.4084138 L0.506726761,24.8263448 L17.0746141,24.8093333 C17.5419944,24.8093333 18.0386704,24.7527816 18.5659944,24.6396782 C19.093769,24.5265747 19.6125296,24.3504828 20.1240789,24.1127816 C20.6342761,23.8750805 21.1286986,23.5684138 21.6055437,23.1950805 C22.0837408,22.8217471 22.5001915,22.3674943 22.8553465,21.836 C23.2100507,21.3026667 23.4976,20.687954 23.7130366,19.9914023 C23.9298254,19.2948506 24.0384451,18.510023 24.0384451,17.6378391 C24.0384451,16.7651954 23.9325296,15.9845057 23.7216,15.2930115 C23.5111211,14.6015172 23.2249239,13.990023 22.8639099,13.4571494" id="Fill-1"></path>
                            <path d="M29.5416338,0.610068966 C29.2752676,0.723172414 29.0449577,0.881793103 28.8502535,1.08547126 C28.6555493,1.29006897 28.503662,1.52777011 28.3927887,1.79949425 C28.2805634,2.07121839 28.2251268,2.36041379 28.2251268,2.66570115 L28.2251268,18.6068506 C28.2251268,19.7512184 28.4288451,20.7167356 28.8340282,21.5038621 C29.239662,22.2923678 29.7435493,22.9323678 30.3501972,23.4238621 C30.955493,23.9167356 31.6135211,24.2712184 32.3233803,24.4863908 C33.0345915,24.7024828 33.6903662,24.8091494 34.2893521,24.8091494 L49.9148169,24.8091494 L49.9148169,20.3912184 L34.3227042,20.3912184 C33.7458028,20.3912184 33.3068169,20.2376552 33.0075493,19.9323678 C32.7069296,19.6266207 32.5577465,19.1843218 32.5577465,18.6068506 L32.5577465,14.8624828 L47.9664225,14.8514483 L47.9664225,10.3981149 L32.5577465,10.4105287 L32.5577465,4.85834483 L49.9148169,4.85834483 L49.9148169,0.440413793 L30.4078873,0.440413793 C30.0973521,0.440413793 29.808,0.496965517 29.5416338,0.610068966" id="Fill-3"></path>
                            <path d="M77.9324394,11.7661149 C77.8215662,11.5008276 77.6687775,11.2658851 77.4740732,11.0608276 C77.2802704,10.8571494 77.0499606,10.6962299 76.782693,10.5766897 C76.5163268,10.4585287 76.2278761,10.3982989 75.9173408,10.3982989 L62.2402704,10.3982989 L62.2402704,14.8516322 L73.7679324,14.8516322 L73.7679324,20.3909425 L60.2905239,20.3909425 C59.735707,20.3909425 59.3057352,20.2350805 58.999707,19.9233563 C58.6941296,19.6116322 58.5413408,19.1730115 58.5413408,18.6070345 L58.5413408,6.67645977 C58.5413408,6.07691954 58.6918761,5.62312644 58.9911437,5.31737931 C59.290862,5.01163218 59.7244394,4.85852874 60.2905239,4.85852874 L77.6525521,4.8451954 L77.6525521,0.427264368 L60.2905239,0.440137931 C59.5473127,0.440137931 58.8802704,0.537149425 58.2912,0.729333333 C57.7034817,0.921977011 57.1842704,1.17944828 56.7344676,1.50266667 C56.2846648,1.82450575 55.898862,2.19691954 55.5761577,2.61531034 C55.2543549,3.03416092 54.9929465,3.47278161 54.7932845,3.93163218 C54.5936225,4.39094253 54.4457915,4.85577011 54.3520451,5.32611494 C54.2573972,5.79645977 54.2105239,6.23508046 54.2105239,6.64243678 L54.2105239,18.6070345 C54.2105239,19.3651954 54.3038197,20.047954 54.4940169,20.653931 C54.6824113,21.2612874 54.9352563,21.7932414 55.2516507,22.252092 C55.5684958,22.7109425 55.9322141,23.1017471 56.3428056,23.4235862 C56.7529465,23.7468046 57.1842704,24.0111724 57.6340732,24.2143908 C58.0843268,24.418069 58.5390873,24.5693333 58.999707,24.6649655 C59.4607775,24.7615172 59.8912,24.8093333 60.2905239,24.8093333 L75.9173408,24.8093333 C76.2278761,24.8093333 76.5163268,24.7527816 76.782693,24.6396782 C77.0499606,24.5265747 77.2802704,24.3707126 77.4740732,24.172092 C77.6687775,23.9743908 77.8215662,23.7394483 77.9324394,23.4663448 C78.0433127,23.1950805 78.0987493,22.9008276 78.0987493,22.5826667 L78.0987493,12.6249655 C78.0987493,12.3192184 78.0433127,12.0327816 77.9324394,11.7661149" id="Fill-5"></path>
                            <path d="M13.9346479,38.2804138 L11.9181972,38.2804138 C11.8825915,38.2804138 11.8086761,38.273977 11.6950986,38.2638621 C11.5819718,38.2542069 11.4512676,38.2275402 11.3020845,38.1847816 C11.1542535,38.1434023 10.9974085,38.0790345 10.8324507,37.9912184 C10.667493,37.9043218 10.5169577,37.7847816 10.3776901,37.6316782 C10.2397746,37.4781149 10.1261972,37.2882299 10.0360563,37.0597241 C9.9463662,36.8321379 9.90174648,36.5530575 9.90174648,36.2234023 L9.90174648,32.9958161 L8.75425352,32.9958161 L8.75425352,36.2234023 C8.75425352,36.6004138 8.79887324,36.9438621 8.88630986,37.251908 C8.97509859,37.5585747 9.09723944,37.8316782 9.25092958,38.0702989 C9.40507042,38.3093793 9.58535211,38.5153563 9.79087324,38.6891494 C9.99684507,38.8638621 10.2172394,39.0073103 10.4502535,39.1190345 C10.6846197,39.2321379 10.9261972,39.3153563 11.176338,39.3691494 C11.4264789,39.4234023 11.6743662,39.4496092 11.9181972,39.4496092 L14.5029859,39.4496092 C14.5827606,39.4496092 14.6580282,39.4344368 14.728338,39.4045517 C14.7986479,39.3755862 14.8603944,39.3342069 14.9131268,39.2813333 C14.9663099,39.2284598 15.0082254,39.1668506 15.0379718,39.0937471 C15.0659155,39.022023 15.0807887,38.9443218 15.0807887,38.8601839 L15.0807887,32.9958161 L13.9346479,32.9958161 L13.9346479,38.2804138 Z" id="Fill-7"></path>
                            <g id="Group-11" transform="translate(24.788732, 32.643678)">
                                <path d="M6.30490141,1.02487356 C6.0696338,0.786252874 5.79109859,0.600045977 5.46794366,0.465333333 C5.14614085,0.329701149 4.79504225,0.261655172 4.41690141,0.261655172 L2.86377465,0.261655172 C2.48428169,0.261655172 2.13273239,0.329701149 1.80867606,0.465333333 C1.48461972,0.600045977 1.20608451,0.786252874 0.970816901,1.02487356 C0.735098592,1.26395402 0.550309859,1.54901149 0.417352113,1.88004598 C0.283042254,2.212 0.216338028,2.57245977 0.216338028,2.96234483 L0.216338028,4.19590805 C0.216338028,4.58947126 0.283042254,4.9503908 0.417352113,5.28096552 C0.550309859,5.61016092 0.735098592,5.89567816 0.970816901,6.13567816 C1.20608451,6.37613793 1.48461972,6.56188506 1.80867606,6.6965977 C2.13273239,6.82993103 2.48428169,6.8965977 2.86377465,6.8965977 L4.41690141,6.8965977 C4.79504225,6.8965977 5.14614085,6.82993103 5.46794366,6.6965977 C5.79109859,6.56188506 6.0696338,6.37613793 6.30490141,6.13567816 C6.54016901,5.89567816 6.72405634,5.61016092 6.85566197,5.28096552 C6.98907042,4.9503908 7.05442254,4.58947126 7.05442254,4.19590805 L7.05442254,2.96234483 C7.05442254,2.57245977 6.98907042,2.212 6.85566197,1.88004598 C6.72405634,1.54901149 6.54016901,1.26395402 6.30490141,1.02487356 L6.30490141,1.02487356 Z M5.90783099,4.19590805 C5.90783099,4.42717241 5.87087324,4.63590805 5.79966197,4.82303448 C5.72664789,5.012 5.62478873,5.17154023 5.49273239,5.30487356 C5.36067606,5.43912644 5.20202817,5.54257471 5.01814085,5.61521839 C4.83470423,5.68970115 4.63098592,5.72602299 4.40698592,5.72602299 L2.86377465,5.72602299 C2.63932394,5.72602299 2.43605634,5.68970115 2.25261972,5.61521839 C2.06873239,5.54257471 1.9096338,5.43912644 1.77802817,5.30487356 C1.64597183,5.17154023 1.54366197,5.012 1.47109859,4.82303448 C1.39943662,4.63590805 1.36247887,4.42717241 1.36247887,4.19590805 L1.36247887,2.96234483 C1.36247887,2.73245977 1.39943662,2.52234483 1.47109859,2.33521839 C1.54366197,2.14763218 1.64597183,1.98671264 1.77802817,1.85337931 C1.9096338,1.72004598 2.06873239,1.61567816 2.25261972,1.54303448 C2.43605634,1.46855172 2.63932394,1.43222989 2.86377465,1.43222989 L4.41690141,1.43222989 C4.63729577,1.43222989 4.83966197,1.46855172 5.02309859,1.54303448 C5.20698592,1.61567816 5.36473239,1.72004598 5.49498592,1.85337931 C5.62569014,1.98671264 5.72664789,2.14763218 5.79966197,2.33521839 C5.87087324,2.52234483 5.90783099,2.73245977 5.90783099,2.96234483 L5.90783099,4.19590805 Z" id="Fill-9"></path>
                            </g>
                            <path d="M6.27830986,33.1669885 C6.22512676,33.1127356 6.16383099,33.0713563 6.09352113,33.0410115 C6.02185915,33.0111264 5.94794366,32.995954 5.86771831,32.995954 L3.28202817,32.995954 C2.82591549,32.995954 2.40585915,33.0750345 2.02140845,33.2350345 C1.63560563,33.3931954 1.3011831,33.6157241 1.01904225,33.9012414 C0.736901408,34.1853793 0.516507042,34.526069 0.357408451,34.9223908 C0.198309859,35.3182529 0.11943662,35.7518161 0.11943662,36.2235402 L0.11943662,39.4497471 L1.26692958,39.4497471 L1.26692958,37.8653793 L5.29847887,37.8653793 L5.29847887,39.4497471 L6.44597183,39.4497471 L6.44597183,33.5858391 C6.44597183,33.5049195 6.43109859,33.4285977 6.40135211,33.3554943 C6.37205634,33.2837701 6.33149296,33.2207816 6.27830986,33.1669885 L6.27830986,33.1669885 Z M5.29847887,36.6961839 L1.26692958,36.6961839 L1.26692958,36.2235402 C1.26692958,35.8966437 1.31109859,35.6175632 1.40123944,35.3885977 C1.49002817,35.1587126 1.60450704,34.9674483 1.74287324,34.8138851 C1.88078873,34.6617011 2.03222535,34.5412414 2.1976338,34.4543448 C2.36123944,34.3674483 2.51898592,34.3021609 2.6668169,34.2607816 C2.816,34.2194023 2.94670423,34.1927356 3.06028169,34.1817011 C3.17250704,34.1715862 3.24777465,34.1665287 3.28202817,34.1665287 L5.29847887,34.1665287 L5.29847887,36.6961839 Z" id="Fill-12"></path>
                        </g>
                        <polygon id="Fill-15" fill="#005285" points="66.6427944 33.0286437 66.6427944 34.1987586 69.1757521 34.1987586 69.1757521 39.481977 70.321893 39.481977 70.321893 34.1987586 72.8494423 34.1987586 72.8494423 33.0286437"></polygon>
                        <polygon id="Fill-16" fill="#005285" points="101.82098 33.0286437 101.82098 34.1987586 104.353938 34.1987586 104.353938 39.481977 105.500079 39.481977 105.500079 34.1987586 108.029431 34.1987586 108.029431 33.0286437"></polygon>
                        <g id="Group-24" transform="translate(83.380282, 32.676230)">
                            <g id="Group-19">
                                <mask id="mask-2" fill="white">
                                    <use xlink:href="#path-1"></use>
                                </mask>
                                <g id="Clip-18"></g>
                                <path d="M7.22113803,0.280551724 C7.09178592,0.247908046 6.96739155,0.255264368 6.84885634,0.30308046 C6.72941972,0.350896552 6.63567324,0.431356322 6.56806761,0.54583908 L3.95623662,5.17664368 L1.34440563,0.54583908 C1.31240563,0.489287356 1.27184225,0.440091954 1.22496901,0.400091954 C1.17809577,0.358712644 1.12626479,0.326988506 1.06857465,0.30445977 C1.01178592,0.282850575 0.951391549,0.269057471 0.88964507,0.26445977 C0.828349296,0.260321839 0.766602817,0.26537931 0.704856338,0.280551724 C0.577757746,0.315954023 0.475447887,0.387678161 0.397926761,0.491586207 C0.320405634,0.597333333 0.280743662,0.716873563 0.280743662,0.851586207 L0.280743662,6.80606897 L1.42823662,6.80606897 L1.42823662,2.9623908 L3.47082817,6.61250575 C3.52130704,6.70537931 3.58891268,6.77572414 3.6763493,6.82491954 C3.76288451,6.87273563 3.85663099,6.89664368 3.95623662,6.89664368 C4.05989859,6.89664368 4.15589859,6.87273563 4.24603944,6.82491954 C4.33482817,6.77572414 4.40468732,6.70537931 4.4556169,6.61250575 L6.48919437,2.9623908 L6.48919437,6.80606897 L7.6452507,6.80606897 L7.6452507,0.851586207 C7.6452507,0.716873563 7.60468732,0.597333333 7.52581408,0.491586207 C7.44694085,0.387678161 7.34418028,0.315954023 7.22113803,0.280551724" id="Fill-17" fill="#005285" mask="url(#mask-2)"></path>
                            </g>
                            <path d="M44.2494197,1.5228046 L44.2494197,0.352229885 L39.0825465,0.352229885 C39.0000676,0.352229885 38.9238986,0.367402299 38.8535887,0.397287356 C38.7832789,0.427632184 38.7215324,0.469011494 38.6697014,0.523264368 C38.6192225,0.577517241 38.5786592,0.640045977 38.5489127,0.711770115 C38.5196169,0.784873563 38.5047437,0.861655172 38.5047437,0.942114943 L38.5047437,5.16418391 C38.5047437,5.46671264 38.5588282,5.72234483 38.6660958,5.93108046 C38.7733634,6.13981609 38.9076732,6.30947126 39.0681239,6.44004598 C39.2281239,6.56970115 39.4020958,6.66395402 39.5904901,6.72050575 C39.7779831,6.77843678 39.9515042,6.80602299 40.1106028,6.80602299 L44.2494197,6.80602299 L44.2494197,5.63682759 L40.1191662,5.63682759 C39.9663775,5.63682759 39.8505465,5.59498851 39.7716732,5.51452874 C39.6914479,5.43314943 39.6522366,5.31590805 39.6522366,5.16418391 L39.6522366,4.16924138 L43.7329127,4.16924138 L43.7329127,2.98993103 L39.6522366,2.98993103 L39.6522366,1.5228046 L44.2494197,1.5228046 Z" id="Fill-20" fill="#005285"></path>
                            <path d="M33.184,5.0017931 L30.9606761,0.352137931 L29.676169,0.352137931 L32.667493,6.57696552 C32.7179718,6.6725977 32.7882817,6.75075862 32.8820282,6.80868966 C32.9744225,6.86754023 33.0744789,6.89650575 33.184,6.89650575 C33.2948732,6.89650575 33.3971831,6.86754023 33.4909296,6.80868966 C33.5833239,6.75075862 33.6522817,6.6725977 33.700507,6.57696552 L36.6954366,0.352137931 L35.4158873,0.352137931 L33.184,5.0017931 Z" id="Fill-22" fill="#005285"></path>
                        </g>
                        <polygon id="Fill-25" fill="#005285" points="110.018254 39.4822069 111.165746 39.4822069 111.165746 33.0288736 110.018254 33.0288736"></polygon>
                        <g id="Group-28" transform="translate(92.845070, 32.676230)" fill="#005285">
                            <path d="M6.49609014,1.02487356 C6.26082254,0.786252874 5.98228732,0.600045977 5.65913239,0.465333333 C5.33732958,0.329701149 4.98623099,0.261655172 4.60809014,0.261655172 L3.05361127,0.261655172 C2.67547042,0.261655172 2.32301972,0.329701149 1.99986479,0.465333333 C1.67580845,0.600045977 1.39727324,0.786252874 1.16155493,1.02487356 C0.926287324,1.26395402 0.741498592,1.54901149 0.608540845,1.88004598 C0.474230986,2.212 0.407526761,2.57245977 0.407526761,2.96234483 L0.407526761,4.19590805 C0.407526761,4.58947126 0.474230986,4.9503908 0.608540845,5.28096552 C0.741498592,5.61016092 0.926287324,5.89567816 1.16155493,6.13567816 C1.39727324,6.37613793 1.67580845,6.56188506 1.99986479,6.6965977 C2.32301972,6.82993103 2.67547042,6.8965977 3.05361127,6.8965977 L4.60809014,6.8965977 C4.98623099,6.8965977 5.33732958,6.82993103 5.65913239,6.6965977 C5.98228732,6.56188506 6.26082254,6.37613793 6.49609014,6.13567816 C6.73135775,5.89567816 6.91524507,5.61016092 7.0468507,5.28096552 C7.17890704,4.9503908 7.24561127,4.58947126 7.24561127,4.19590805 L7.24561127,2.96234483 C7.24561127,2.57245977 7.17890704,2.212 7.0468507,1.88004598 C6.91524507,1.54901149 6.73135775,1.26395402 6.49609014,1.02487356 L6.49609014,1.02487356 Z M6.09811831,4.19590805 C6.09811831,4.42717241 6.06206197,4.63590805 5.9908507,4.82303448 C5.91828732,5.012 5.81597746,5.17154023 5.68392113,5.30487356 C5.55186479,5.43912644 5.3927662,5.54257471 5.20932958,5.61521839 C5.02544225,5.68970115 4.82217465,5.72602299 4.59817465,5.72602299 L3.05361127,5.72602299 C2.83051268,5.72602299 2.62724507,5.68970115 2.44380845,5.61521839 C2.25992113,5.54257471 2.10082254,5.43912644 1.9692169,5.30487356 C1.83580845,5.17154023 1.7348507,5.012 1.66228732,4.82303448 C1.59062535,4.63590805 1.55366761,4.42717241 1.55366761,4.19590805 L1.55366761,2.96234483 C1.55366761,2.73245977 1.59062535,2.52234483 1.66228732,2.33521839 C1.7348507,2.14763218 1.83580845,1.98671264 1.9692169,1.85337931 C2.10082254,1.72004598 2.25992113,1.61567816 2.44380845,1.54303448 C2.62724507,1.46855172 2.83051268,1.43222989 3.05361127,1.43222989 L4.60809014,1.43222989 C4.82713239,1.43222989 5.0308507,1.46855172 5.21428732,1.54303448 C5.39772394,1.61567816 5.55547042,1.72004598 5.68617465,1.85337931 C5.81687887,1.98671264 5.91828732,2.14763218 5.9908507,2.33521839 C6.06206197,2.52234483 6.09811831,2.73245977 6.09811831,2.96234483 L6.09811831,4.19590805 Z" id="Fill-26"></path>
                        </g>
                        <g id="Bildmarke" transform="translate(0.000000, 0.032552)">
                            <path d="M1.91693521,19.9837241 C1.91693521,10.2664828 9.6388507,2.38924138 19.1644845,2.38924138 C21.7524282,2.38924138 24.2051606,2.97498851 26.4086535,4.01682759 L27.5232451,2.39245977 C19.2023437,-1.73489655 8.94296338,0.79291954 3.46645634,8.77085057 C-2.0100507,16.7492414 -0.829205634,27.4485517 5.81868169,34.0136092 L6.93417465,32.3883218 C3.83378028,29.2071724 1.91693521,24.8241839 1.91693521,19.9837241" id="Fill-29" fill="#009164"></path>
                            <path d="M33.6183437,7.14611494 L32.4812169,8.80266667 C34.9366535,11.8422069 36.4118085,15.7373793 36.4118085,19.9838161 C36.4118085,29.7005977 28.689893,37.5778391 19.1642592,37.5778391 C17.1491606,37.5778391 15.2165408,37.221977 13.4186817,36.5741609 L12.2820056,38.2302529 C20.3090479,41.387954 29.706231,38.7093333 34.862738,31.1971494 C40.0192451,23.6849655 39.2724282,13.7603678 33.6183437,7.14611494" id="Fill-32" fill="#005285"></path>
                        </g>
                    </g>
                </g>
            </g>
        </g>
    </g>
</svg>